<svg xmlns="http://www.w3.org/2000/svg" viewBox="0 0 160.56 160.62"><title>Asset 2</title><g id="Layer_2" data-name="Layer 2"><g id="Layer_1-2" data-name="Layer 1"><path d="M-45.66-595.45-31-610.1s7.33,7.33,0,14.65l-7.32,7.33Z" transform="translate(115 694)" style="fill:#58595b"/><path d="M11.37-549.62V-535a136.55,136.55,0,0,1-117.49-38.48q-4.71-4.71-8.88-9.76l10.41-10.4a124.53,124.53,0,0,0,8.89,9.9,121.52,121.52,0,0,0,40.45,26.87,122.06,122.06,0,0,0,46,8.94,124.2,124.2,0,0,0,20-1.63Z" transform="translate(115 694)" style="fill:#58595b"/><path d="M24.31-672.75a72.52,72.52,0,0,0-102.57,0,72.47,72.47,0,0,0-19,69.33,116.17,116.17,0,0,0,9,10.15,118.9,118.9,0,0,0,9.6,8.59l7.29-36.41,14.65,14.65,7.33-7.32c11-11,22-7.33,22-7.33L9.29-657.73C24-643.07,13-624.74-5.36-599.11c-9,12.57-16.16,26.75-21.16,38a116.8,116.8,0,0,0,39.39.25,72.38,72.38,0,0,0,11.44-9.34A72.52,72.52,0,0,0,24.31-672.75Zm-92.37,29.28-9.13-4.9a57.11,57.11,0,0,1,36.3-28.35l2.53,10.05A46.7,46.7,0,0,0-68.06-643.47Zm41.1-24.6a47.93,47.93,0,0,0-6.23.41l-1.37-10.27a58.32,58.32,0,0,1,7.6-.5Z" transform="translate(115 694)" style="fill:#58595b"/></g></g></svg>